# xmcd CD database file
#
# Track frame offsets:
#	183
#	15838
#	30155
#	44583
#	58478
#	74105
#	87783
#	102865
#	116493
#	130088
#	142963
#	171668
#	185160
#	201048
#	216593
#	230793
#	245170
#	259093
#	272755
#	287480
#	301388
#	316080
#
# Disc length: 4419 seconds
#
# Revision: 1
# Processed by: cddbd v1.5.2PL0 Copyright (c) Steve Scherf et al.
# Submitted via: CDex 1.85
#
DISCID=51114116
DTITLE=Bessie Smith and 'Classic Blues Singers' - Raccolta
DYEAR=1900
DGENRE=Jazz
TTITLE0=Down hearted blues (B. Smith, C. Williams)
TTITLE1=Weeping willow blues (B. Smith, J. Smith, C. Green, F. Henderson)
TTITLE2=The St.Louis blues (B. Smith, L. Armstrong, F. Longshaw)
TTITLE3=Reckless blues (B. Smith, L. Armstrong, F. Longshaw)
TTITLE4=Careless love blues (B. Smith, L. Armstrong, F. Longshaw)
TTITLE5=Baby doll (B. Smith, J. Smith, F. Henderson)
TTITLE6=Back water blues (B. Smith, J. P. Johnson)
TTITLE7=Alexander's ragtime band (B. Smith and Her Band)
TTITLE8=Dyin' by the hour
TTITLE9=I used to be your sweet mama
TTITLE10=Empty bed blues
TTITLE11=On revival day
TTITLE12=Gimme a pig's foot
TTITLE13=Do your duty
TTITLE14=Jelly bean blues
TTITLE15=Countin' the blues
TTITLE16=The world is jazz crazy and so am i
TTITLE17=Railroad blues
TTITLE18=Beale street blues
TTITLE19=Moaning the blues
TTITLE20=Death letter blues
TTITLE21=Four day creep
EXTD=
EXTT0=
EXTT1=
EXTT2=
EXTT3=
EXTT4=
EXTT5=
EXTT6=
EXTT7=
EXTT8=
EXTT9=
EXTT10=
EXTT11=
EXTT12=
EXTT13=
EXTT14=
EXTT15=
EXTT16=
EXTT17=
EXTT18=
EXTT19=
EXTT20=
EXTT21=
PLAYORDER=
